<svg id="Group_160" data-name="Group 160" xmlns="http://www.w3.org/2000/svg" width="461.571" height="117.103" viewBox="0 0 461.571 117.103">
  <path id="Path_57" data-name="Path 57" d="M5.084,3.65H8.571v1.5H5.084V9.1h-1.6V5.153H0V3.65H3.487V0h1.6Z" transform="translate(101.242 108)" fill="#3db178"/>
  <path id="Path_58" data-name="Path 58" d="M5.084,3.65H8.571v1.5H5.084V9.1h-1.6V5.153H0V3.65H3.487V0h1.6Z" transform="translate(425.019 103.57)" fill="#e5e5e5"/>
  <path id="Path_59" data-name="Path 59" d="M5.084,3.65H8.571v1.5H5.084V9.1h-1.6V5.153H0V3.65H3.487V0h1.6Z" transform="translate(397.038 105.552)" fill="#e5e5e5"/>
  <path id="Path_62" data-name="Path 62" d="M5.084,3.65H8.571v1.5H5.084V9.1h-1.6V5.153H0V3.65H3.486V0h1.6Z" transform="translate(453 75.589)" fill="#e5e5e5"/>
  <path id="Path_63" data-name="Path 63" d="M5.084,3.65H8.571v1.5H5.084V9.1h-1.6V5.153H0V3.65H3.486V0h1.6Z" transform="translate(453 103.57)" fill="#e5e5e5"/>
  <path id="Path_64" data-name="Path 64" d="M5.084,3.65H8.571v1.5H5.084V9.1h-1.6V5.153H0V3.65H3.486V0h1.6Z" transform="translate(377.627 105.552)" fill="#e5e5e5"/>
  <path id="Path_65" data-name="Path 65" d="M5.084,3.65H8.571v1.5H5.084V9.1h-1.6V5.153H0V3.65H3.486V0h1.6Z" transform="translate(323.696)" fill="#ffbf00"/>
  <path id="Path_66" data-name="Path 66" d="M5.084,3.65H8.571v1.5H5.084V9.1h-1.6V5.153H0V3.65H3.486V0h1.6Z" transform="translate(17.982 7.075)" fill="#e5e5e5"/>
  <path id="Path_67" data-name="Path 67" d="M5.084,3.65H8.571v1.5H5.084V9.1h-1.6V5.153H0V3.65H3.486V0h1.6Z" transform="translate(0 7.075)" fill="#e5e5e5"/>
  <path id="Path_68" data-name="Path 68" d="M5.084,3.65H8.571v1.5H5.084V9.1h-1.6V5.153H0V3.65H3.486V0h1.6Z" transform="translate(0 27.504)" fill="#e5e5e5"/>
</svg>
