<svg xmlns="http://www.w3.org/2000/svg" width="91.023" height="141.145" viewBox="0 0 91.023 141.145">
  <g id="Group_43" data-name="Group 43" transform="translate(91.023 141.145) rotate(180)">
    <path id="Path_54" data-name="Path 54" d="M5,3.552h3.43V5.015H5V8.86H3.43V5.015H0V3.552H3.43V0H5Z" transform="translate(0 105.053)" fill="#e5e5e5"/>
    <path id="Path_55" data-name="Path 55" d="M5,3.552h3.43V5.015H5V8.859H3.43V5.015H0V3.552H3.43V0H5Z" transform="translate(27.53 23.357)" fill="#e5e5e5"/>
    <path id="Path_56" data-name="Path 56" d="M5,3.552h3.43V5.015H5V8.859H3.43V5.015H0V3.552H3.43V0H5Z" transform="translate(27.53 50.589)" fill="#e5e5e5"/>
    <path id="Path_58" data-name="Path 58" d="M5,3.552h3.43V5.015H5V8.86H3.43V5.015H0V3.552H3.43V0H5Z" transform="translate(27.53 105.053)" fill="#e5e5e5"/>
    <path id="Path_59" data-name="Path 59" d="M5,3.552h3.43V5.015H5V8.86H3.43V5.015H0V3.552H3.43V0H5Z" transform="translate(27.53 132.285)" fill="#e5e5e5"/>
    <path id="Path_60" data-name="Path 60" d="M5,3.552H8.433V5.015H5V8.859H3.43V5.015H0V3.552H3.43V0H5Z" transform="translate(55.06 23.357)" fill="#e5e5e5"/>
    <path id="Path_351" data-name="Path 351" d="M5,3.552H8.433V5.015H5V8.859H3.43V5.015H0V3.552H3.43V0H5Z" transform="translate(82.59 23.357)" fill="#e5e5e5"/>
    <path id="Path_352" data-name="Path 352" d="M5,3.552H8.433V5.015H5V8.859H3.43V5.015H0V3.552H3.43V0H5Z" transform="translate(82.59)" fill="#e5e5e5"/>
    <path id="Path_61" data-name="Path 61" d="M5,3.552H8.433V5.015H5V8.859H3.43V5.015H0V3.552H3.43V0H5Z" transform="translate(55.06 50.589)" fill="#e5e5e5"/>
    <path id="Path_62" data-name="Path 62" d="M5,3.552H8.433V5.015H5V8.859H3.43V5.015H0V3.552H3.43V0H5Z" transform="translate(55.06 77.821)" fill="#e5e5e5"/>
    <path id="Path_63" data-name="Path 63" d="M5,3.552H8.433V5.015H5V8.86H3.43V5.015H0V3.552H3.43V0H5Z" transform="translate(55.06 105.053)" fill="#e5e5e5"/>
    <path id="Path_64" data-name="Path 64" d="M5,3.552H8.433V5.015H5V8.86H3.43V5.015H0V3.552H3.43V0H5Z" transform="translate(55.06 132.285)" fill="#e5e5e5"/>
    <path id="Path_66" data-name="Path 66" d="M5,3.552H8.433V5.015H5V8.859H3.43V5.015H0V3.552H3.43V0H5Z" transform="translate(82.59 50.589)" fill="#e5e5e5"/>
    <path id="Path_67" data-name="Path 67" d="M5,3.552H8.433V5.015H5V8.859H3.43V5.015H0V3.552H3.43V0H5Z" transform="translate(82.59 77.821)" fill="#e5e5e5"/>
    <path id="Path_68" data-name="Path 68" d="M5,3.552H8.433V5.015H5V8.86H3.43V5.015H0V3.552H3.43V0H5Z" transform="translate(82.59 105.053)" fill="#e5e5e5"/>
    <path id="Path_69" data-name="Path 69" d="M5,3.552H8.433V5.015H5V8.86H3.43V5.015H0V3.552H3.43V0H5Z" transform="translate(82.59 132.285)" fill="#e5e5e5"/>
  </g>
</svg>
