<svg xmlns="http://www.w3.org/2000/svg" width="121.029" height="120.497" viewBox="0 0 121.029 120.497">
  <g id="Group_92" data-name="Group 92" transform="translate(121.029) rotate(90)">
    <path id="Path_53" data-name="Path 53" d="M5.084,3.65H8.571v1.5H5.084V9.1h-1.6V5.153H0V3.65H3.487V0h1.6Z" transform="translate(0 111.926)" fill="#eb4235"/>
    <path id="Path_54" data-name="Path 54" d="M5.084,3.65H8.571v1.5H5.084V9.1h-1.6V5.153H0V3.65H3.487V0h1.6Z" transform="translate(27.981 83.944)" fill="#e5e5e5"/>
    <path id="Path_55" data-name="Path 55" d="M5.084,3.65H8.571v1.5H5.084V9.1h-1.6V5.153H0V3.65H3.487V0h1.6Z" transform="translate(55.963)" fill="#e5e5e5"/>
    <path id="Path_56" data-name="Path 56" d="M5.084,3.65H8.571v1.5H5.084V9.1h-1.6V5.153H0V3.65H3.487V0h1.6Z" transform="translate(55.963 27.981)" fill="#e5e5e5"/>
    <path id="Path_57" data-name="Path 57" d="M5.084,3.65H8.571v1.5H5.084V9.1h-1.6V5.153H0V3.65H3.487V0h1.6Z" transform="translate(55.963 55.963)" fill="#3db178"/>
    <path id="Path_58" data-name="Path 58" d="M5.084,3.65H8.571v1.5H5.084V9.1h-1.6V5.153H0V3.65H3.487V0h1.6Z" transform="translate(55.963 83.944)" fill="#e5e5e5"/>
    <path id="Path_59" data-name="Path 59" d="M5.084,3.65H8.571v1.5H5.084V9.1h-1.6V5.153H0V3.65H3.487V0h1.6Z" transform="translate(55.963 111.926)" fill="#e5e5e5"/>
    <path id="Path_60" data-name="Path 60" d="M5.084,3.65H8.571v1.5H5.084V9.1h-1.6V5.153H0V3.65H3.486V0h1.6Z" transform="translate(83.944)" fill="#e5e5e5"/>
    <path id="Path_61" data-name="Path 61" d="M5.084,3.65H8.571v1.5H5.084V9.1h-1.6V5.153H0V3.65H3.486V0h1.6Z" transform="translate(83.944 27.981)" fill="#e5e5e5"/>
    <path id="Path_62" data-name="Path 62" d="M5.084,3.65H8.571v1.5H5.084V9.1h-1.6V5.153H0V3.65H3.486V0h1.6Z" transform="translate(83.944 55.963)" fill="#e5e5e5"/>
    <path id="Path_63" data-name="Path 63" d="M5.084,3.65H8.571v1.5H5.084V9.1h-1.6V5.153H0V3.65H3.486V0h1.6Z" transform="translate(83.944 83.944)" fill="#e5e5e5"/>
    <path id="Path_64" data-name="Path 64" d="M5.084,3.65H8.571v1.5H5.084V9.1h-1.6V5.153H0V3.65H3.486V0h1.6Z" transform="translate(83.944 111.926)" fill="#e5e5e5"/>
    <path id="Path_65" data-name="Path 65" d="M5.084,3.65H8.571v1.5H5.084V9.1h-1.6V5.153H0V3.65H3.486V0h1.6Z" transform="translate(111.926)" fill="#ffbf00"/>
    <path id="Path_66" data-name="Path 66" d="M5.084,3.65H8.571v1.5H5.084V9.1h-1.6V5.153H0V3.65H3.486V0h1.6Z" transform="translate(111.926 27.981)" fill="#e5e5e5"/>
    <path id="Path_67" data-name="Path 67" d="M5.084,3.65H8.571v1.5H5.084V9.1h-1.6V5.153H0V3.65H3.486V0h1.6Z" transform="translate(111.926 55.963)" fill="#e5e5e5"/>
    <path id="Path_68" data-name="Path 68" d="M5.084,3.65H8.571v1.5H5.084V9.1h-1.6V5.153H0V3.65H3.486V0h1.6Z" transform="translate(111.926 83.944)" fill="#e5e5e5"/>
    <path id="Path_69" data-name="Path 69" d="M5.084,3.65H8.571v1.5H5.084V9.1h-1.6V5.153H0V3.65H3.486V0h1.6Z" transform="translate(111.926 111.926)" fill="#e5e5e5"/>
  </g>
</svg>
