<svg xmlns="http://www.w3.org/2000/svg" width="64.534" height="65.066" viewBox="0 0 64.534 65.066">
  <g id="Group_339" data-name="Group 339" transform="translate(120.497 121.029) rotate(180)">
    <path id="Path_59" data-name="Path 59" d="M5.084,3.65H8.571v1.5H5.084V9.1h-1.6V5.153H0V3.65H3.487V0h1.6Z" transform="translate(55.963 111.926)" fill="#e5e5e5"/>
    <path id="Path_64" data-name="Path 64" d="M5.084,3.65H8.571v1.5H5.084V9.1h-1.6V5.153H0V3.65H3.486V0h1.6Z" transform="translate(83.944 111.926)" fill="#e5e5e5"/>
    <path id="Path_67" data-name="Path 67" d="M5.084,3.65H8.571v1.5H5.084V9.1h-1.6V5.153H0V3.65H3.486V0h1.6Z" transform="translate(111.926 55.963)" fill="#e5e5e5"/>
    <path id="Path_68" data-name="Path 68" d="M5.084,3.65H8.571v1.5H5.084V9.1h-1.6V5.153H0V3.65H3.486V0h1.6Z" transform="translate(111.926 83.944)" fill="#e5e5e5"/>
  </g>
</svg>
