<svg xmlns="http://www.w3.org/2000/svg" width="430.572" height="119.655" viewBox="0 0 430.572 119.655">
  <g id="Group_160" data-name="Group 160" transform="translate(338.056 24.626)">
    <path id="Path_54" data-name="Path 54" d="M5.084,3.65H8.571v1.5H5.084V9.1h-1.6V5.153H0V3.65H3.487V0h1.6Z" transform="translate(55.963 55.963)" fill="#e5e5e5"/>
    <path id="Path_55" data-name="Path 55" d="M5.084,3.65H8.571v1.5H5.084V9.1h-1.6V5.153H0V3.65H3.487V0h1.6Z" transform="translate(55.963)" fill="#e5e5e5"/>
    <path id="Path_56" data-name="Path 56" d="M5.084,3.65H8.571v1.5H5.084V9.1h-1.6V5.153H0V3.65H3.487V0h1.6Z" transform="translate(55.963 27.981)" fill="#e5e5e5"/>
    <path id="Path_57" data-name="Path 57" d="M5.084,3.65H8.571v1.5H5.084V9.1h-1.6V5.153H0V3.65H3.487V0h1.6Z" transform="translate(-268.037 81.374)" fill="#3db178"/>
    <path id="Path_58" data-name="Path 58" d="M5.084,3.65H8.571v1.5H5.084V9.1h-1.6V5.153H0V3.65H3.487V0h1.6Z" transform="translate(55.963 83.944)" fill="#e5e5e5"/>
    <path id="Path_59" data-name="Path 59" d="M5.084,3.65H8.571v1.5H5.084V9.1h-1.6V5.153H0V3.65H3.487V0h1.6Z" transform="translate(27.982 85.926)" fill="#e5e5e5"/>
    <path id="Path_60" data-name="Path 60" d="M5.084,3.65H8.571v1.5H5.084V9.1h-1.6V5.153H0V3.65H3.486V0h1.6Z" transform="translate(83.944)" fill="#e5e5e5"/>
    <path id="Path_61" data-name="Path 61" d="M5.084,3.65H8.571v1.5H5.084V9.1h-1.6V5.153H0V3.65H3.486V0h1.6Z" transform="translate(83.944 27.981)" fill="#e5e5e5"/>
    <path id="Path_62" data-name="Path 62" d="M5.084,3.65H8.571v1.5H5.084V9.1h-1.6V5.153H0V3.65H3.486V0h1.6Z" transform="translate(83.944 55.963)" fill="#e5e5e5"/>
    <path id="Path_63" data-name="Path 63" d="M5.084,3.65H8.571v1.5H5.084V9.1h-1.6V5.153H0V3.65H3.486V0h1.6Z" transform="translate(83.944 83.944)" fill="#e5e5e5"/>
    <path id="Path_64" data-name="Path 64" d="M5.084,3.65H8.571v1.5H5.084V9.1h-1.6V5.153H0V3.65H3.486V0h1.6Z" transform="translate(8.571 85.926)" fill="#e5e5e5"/>
    <path id="Path_65" data-name="Path 65" d="M5.084,3.65H8.571v1.5H5.084V9.1h-1.6V5.153H0V3.65H3.486V0h1.6Z" transform="translate(-46.074 -24.626)" fill="#ffbf00"/>
    <path id="Path_66" data-name="Path 66" d="M5.084,3.65H8.571v1.5H5.084V9.1h-1.6V5.153H0V3.65H3.486V0h1.6Z" transform="translate(-310.074 -4.552)" fill="#e5e5e5"/>
    <path id="Path_67" data-name="Path 67" d="M5.084,3.65H8.571v1.5H5.084V9.1h-1.6V5.153H0V3.65H3.486V0h1.6Z" transform="translate(-338.056 -4.552)" fill="#e5e5e5"/>
    <path id="Path_68" data-name="Path 68" d="M5.084,3.65H8.571v1.5H5.084V9.1h-1.6V5.153H0V3.65H3.486V0h1.6Z" transform="translate(-338.056 18.878)" fill="#e5e5e5"/>
    <path id="Path_69" data-name="Path 69" d="M5.084,3.65H8.571v1.5H5.084V9.1h-1.6V5.153H0V3.65H3.486V0h1.6Z" transform="translate(55.962 -20.074)" fill="#e5e5e5"/>
  </g>
</svg>
