<svg xmlns="http://www.w3.org/2000/svg" width="740.186" height="725.474" viewBox="0 0 740.186 725.474">
  <path id="_291781437_408628897969581_7022592583326603974_n" data-name="291781437_408628897969581_7022592583326603974_n" d="M740.186,162.915V708.1a17.309,17.309,0,0,1-17.246,17.371H136.231a17.423,17.423,0,0,1-17.359-17.487V637.373a17.356,17.356,0,0,0-17.292-17.419H17.359A17.423,17.423,0,0,1,0,602.468V246.677a17.423,17.423,0,0,1,17.359-17.485H52.735a17.356,17.356,0,0,0,17.292-17.418V17.487A17.423,17.423,0,0,1,87.386,0H598.1a17.423,17.423,0,0,1,17.359,17.487V128.01a17.355,17.355,0,0,0,17.292,17.418h90.08a17.423,17.423,0,0,1,17.359,17.487" fill="#fff"/>
</svg>
