<svg xmlns="http://www.w3.org/2000/svg" width="996" height="890.095" viewBox="0 0 996 890.095">
  <path id="vu-anh-TiVPTYCG_3E-unsplash" d="M996.5,23.057V868.038a15.571,15.571,0,0,1-.115,1.912,22.46,22.46,0,0,1-20.531,20.531,15.546,15.546,0,0,1-1.912.115H108.721A21.735,21.735,0,0,1,86.982,868.86V840.281a22.56,22.56,0,0,0-22.557-22.557H22.239A21.735,21.735,0,0,1,.5,795.989V23.057a15.562,15.562,0,0,1,.115-1.912A22.428,22.428,0,0,1,21.146.615,15.562,15.562,0,0,1,23.057.5H973.943a15.561,15.561,0,0,1,1.912.115,22.461,22.461,0,0,1,20.531,20.531,15.572,15.572,0,0,1,.115,1.912" transform="translate(-0.5 -0.5)" fill="#e5e5e5"/>
</svg>
