<svg xmlns="http://www.w3.org/2000/svg" width="750" height="560.965" viewBox="0 0 750 560.965">
  <path id="vu-anh-TiVPTYCG_3E-unsplash" d="M773.5,14.982v532a8.292,8.292,0,0,1-.089,1.227c-.682,7.02-7.478,12.616-15.934,13.181a14.557,14.557,0,0,1-1.484.074H109.5c-9.32,0-16.872-6.247-16.872-13.954V511.265c0-8-7.839-14.481-17.507-14.481H40.372c-9.32,0-16.872-6.247-16.872-13.954V14.982a8.288,8.288,0,0,1,.089-1.227C24.271,6.734,31.037,1.138,39.523.574A14.571,14.571,0,0,1,41.007.5H755.993a14.57,14.57,0,0,1,1.484.074c8.457.565,15.252,6.161,15.934,13.181a8.291,8.291,0,0,1,.089,1.227" transform="translate(773.5 561.465) rotate(180)" fill="#fff"/>
</svg>
