<svg xmlns="http://www.w3.org/2000/svg" width="609.84" height="404.449" viewBox="0 0 609.84 404.449">
  <g id="Group_360" data-name="Group 360" transform="translate(9 -658.318)">
    <path id="Path_428" data-name="Path 428" d="M609.84,21.643V382.806A21.643,21.643,0,0,1,588.2,404.449H21.643A21.643,21.643,0,0,1,0,382.806V21.643A21.643,21.643,0,0,1,21.643,0H242.82a21.414,21.414,0,0,1,20.151,14.58A44.413,44.413,0,0,0,304.92,44.39a44.4,44.4,0,0,0,41.94-29.808A21.414,21.414,0,0,1,367.011,0H588.2A21.643,21.643,0,0,1,609.84,21.643" transform="translate(-9 658.318)" fill="#fff"/>
  </g>
</svg>
