<svg xmlns="http://www.w3.org/2000/svg" xmlns:xlink="http://www.w3.org/1999/xlink" width="871.5" height="848.001" viewBox="0 0 871.5 848.001">
  <defs>
    <clipPath id="clip-path">
      <rect id="Rectangle_228" data-name="Rectangle 228" width="871.5" height="848.001" fill="none"/>
    </clipPath>
  </defs>
  <g id="Mask_Group_273" data-name="Mask Group 273" clip-path="url(#clip-path)">
    <path id="ali-mansouri-i6xjszwzuOA-unsplash" d="M0,603.571V20.3A20.3,20.3,0,0,1,20.3,0H741.1a20.439,20.439,0,0,1,20.439,20.44V82.98a20.36,20.36,0,0,0,20.36,20.36h69.161A20.439,20.439,0,0,1,871.5,123.779V559.661A20.439,20.439,0,0,1,851.061,580.1H809.41a20.36,20.36,0,0,0-20.36,20.36v227.1A20.439,20.439,0,0,1,768.611,848H227.3a20.439,20.439,0,0,1-20.439-20.44V644.37a20.36,20.36,0,0,0-20.36-20.36H20.439A20.439,20.439,0,0,1,0,603.571" fill="#fff"/>
  </g>
</svg>
